# xmcd
#
# Track frame offsets: 
#        150
#        2422
#        34692
#        61080
#        82123
#        113680
#        136235
#        157139
#        166460
#        205325
#        207998
#        242915
#        248597
#
# Disc length: 3746 seconds
#
# Revision: 0
# Processed by: cddbd v1.5.2PL0 Copyright (c) Steve Scherf et al.
# Submitted via: ExactAudioCopy v1.0b4
#
DISCID=a90ea00d
DTITLE=Marquise Knox - Black And Blue
DYEAR=2017
DGENRE=Blues
TTITLE0=Intro
TTITLE1=It's Not Right
TTITLE2=When My Baby Moves
TTITLE3=Sweet Smell
TTITLE4=Commit A Crime
TTITLE5=You Keep Asking Me
TTITLE6=Shine In The Rain
TTITLE7=Your Mother Don't Know
TTITLE8=Can A Young Man Play The Blues
TTITLE9=Trying To Make A Living
TTITLE10=Blues Man
TTITLE11=Crowd Love
TTITLE12=One More Reason (To Have The Blues)
EXTD=
EXTT0=
EXTT1=
EXTT2=
EXTT3=
EXTT4=
EXTT5=
EXTT6=
EXTT7=
EXTT8=
EXTT9=
EXTT10=
EXTT11=
EXTT12=
PLAYORDER=
